<mxfile host="app.diagrams.net" modified="2023-09-07T14:55:44.488Z" agent="Mozilla/5.0 (Windows NT 10.0; Win64; x64) AppleWebKit/537.36 (KHTML, like Gecko) Chrome/116.0.0.0 Safari/537.36" etag="uV-6pHbyj4IN5aXNukZR" version="21.7.2" type="google">
  <diagram id="C5RBs43oDa-KdzZeNtuy" name="Page-1">
    <mxGraphModel grid="1" page="1" gridSize="10" guides="1" tooltips="1" connect="1" arrows="1" fold="1" pageScale="1" pageWidth="827" pageHeight="1169" math="0" shadow="0">
      <root>
        <mxCell id="WIyWlLk6GJQsqaUBKTNV-0" />
        <mxCell id="WIyWlLk6GJQsqaUBKTNV-1" parent="WIyWlLk6GJQsqaUBKTNV-0" />
        <mxCell id="qTblMMeGv0JHgPKJD6Xy-28" value="" style="shape=flexArrow;endArrow=classic;html=1;rounded=0;width=20.952380952380953;endSize=13.028571428571428;" edge="1" parent="WIyWlLk6GJQsqaUBKTNV-1">
          <mxGeometry width="50" height="50" relative="1" as="geometry">
            <mxPoint x="185" y="240" as="sourcePoint" />
            <mxPoint x="40" y="240" as="targetPoint" />
          </mxGeometry>
        </mxCell>
        <mxCell id="qTblMMeGv0JHgPKJD6Xy-30" value="&lt;font style=&quot;font-size: 11px;&quot;&gt;ESP32 PMW Signals&lt;/font&gt;" style="edgeLabel;html=1;align=center;verticalAlign=middle;resizable=0;points=[];rotation=0;" connectable="0" vertex="1" parent="qTblMMeGv0JHgPKJD6Xy-28">
          <mxGeometry x="0.3725" y="3" relative="1" as="geometry">
            <mxPoint x="19" y="-3" as="offset" />
          </mxGeometry>
        </mxCell>
        <mxCell id="WIyWlLk6GJQsqaUBKTNV-3" value="Computer Vision" style="rounded=1;whiteSpace=wrap;html=1;fontSize=12;glass=0;strokeWidth=1;shadow=0;" vertex="1" parent="WIyWlLk6GJQsqaUBKTNV-1">
          <mxGeometry x="155" width="120" height="40" as="geometry" />
        </mxCell>
        <mxCell id="qTblMMeGv0JHgPKJD6Xy-2" value="" style="shape=flexArrow;endArrow=classic;html=1;rounded=0;width=20.952380952380953;endSize=13.028571428571428;" edge="1" parent="WIyWlLk6GJQsqaUBKTNV-1">
          <mxGeometry width="50" height="50" relative="1" as="geometry">
            <mxPoint x="250" y="240" as="sourcePoint" />
            <mxPoint x="400" y="240" as="targetPoint" />
          </mxGeometry>
        </mxCell>
        <mxCell id="qTblMMeGv0JHgPKJD6Xy-26" value="ESP32 Pin Signals" style="edgeLabel;html=1;align=center;verticalAlign=middle;resizable=0;points=[];rotation=0;" connectable="0" vertex="1" parent="qTblMMeGv0JHgPKJD6Xy-2">
          <mxGeometry x="0.0243" y="-4" relative="1" as="geometry">
            <mxPoint x="-7" y="-4" as="offset" />
          </mxGeometry>
        </mxCell>
        <mxCell id="qTblMMeGv0JHgPKJD6Xy-0" value="ESP-32 Wi-Fi controller and request handler&lt;br&gt;" style="whiteSpace=wrap;html=1;aspect=fixed;" vertex="1" parent="WIyWlLk6GJQsqaUBKTNV-1">
          <mxGeometry x="170" y="160" width="90" height="90" as="geometry" />
        </mxCell>
        <mxCell id="qTblMMeGv0JHgPKJD6Xy-4" value="Motor enable channels" style="rounded=0;whiteSpace=wrap;html=1;" vertex="1" parent="WIyWlLk6GJQsqaUBKTNV-1">
          <mxGeometry x="400" y="220" width="100" height="50" as="geometry" />
        </mxCell>
        <mxCell id="qTblMMeGv0JHgPKJD6Xy-9" value="" style="shape=flexArrow;endArrow=classic;html=1;rounded=0;endWidth=26.666666666666664;endSize=10.228571428571428;width=28.57142857142857;" edge="1" parent="WIyWlLk6GJQsqaUBKTNV-1">
          <mxGeometry x="-0.3305" y="-85" width="50" height="50" relative="1" as="geometry">
            <mxPoint x="214.76000000000022" y="40" as="sourcePoint" />
            <mxPoint x="215.00000000000023" y="160" as="targetPoint" />
            <Array as="points" />
            <mxPoint as="offset" />
          </mxGeometry>
        </mxCell>
        <mxCell id="qTblMMeGv0JHgPKJD6Xy-14" value="&lt;font style=&quot;font-size: 11px;&quot;&gt;HTTP requests&lt;/font&gt;" style="text;html=1;align=center;verticalAlign=middle;resizable=0;points=[];autosize=1;strokeColor=none;fillColor=none;rotation=-90;" vertex="1" parent="WIyWlLk6GJQsqaUBKTNV-1">
          <mxGeometry x="165" y="70" width="100" height="30" as="geometry" />
        </mxCell>
        <mxCell id="qTblMMeGv0JHgPKJD6Xy-32" value="Motor PMW channel" style="rounded=0;whiteSpace=wrap;html=1;" vertex="1" parent="WIyWlLk6GJQsqaUBKTNV-1">
          <mxGeometry x="-60" y="220" width="100" height="50" as="geometry" />
        </mxCell>
        <mxCell id="qTblMMeGv0JHgPKJD6Xy-33" value="Sonar sensor for distance measurement" style="rounded=0;whiteSpace=wrap;html=1;" vertex="1" parent="WIyWlLk6GJQsqaUBKTNV-1">
          <mxGeometry x="-60" y="370" width="100" height="55" as="geometry" />
        </mxCell>
        <mxCell id="qTblMMeGv0JHgPKJD6Xy-34" value="" style="shape=flexArrow;endArrow=classic;html=1;rounded=0;exitX=0.5;exitY=0;exitDx=0;exitDy=0;endWidth=21.234567901234566;endSize=4.011111111111111;width=32.77777777777778;" edge="1" parent="WIyWlLk6GJQsqaUBKTNV-1" source="qTblMMeGv0JHgPKJD6Xy-33">
          <mxGeometry width="50" height="50" relative="1" as="geometry">
            <mxPoint x="-10.329999999999998" y="340" as="sourcePoint" />
            <mxPoint x="-10.329999999999998" y="270" as="targetPoint" />
          </mxGeometry>
        </mxCell>
        <mxCell id="qTblMMeGv0JHgPKJD6Xy-38" value="&lt;font style=&quot;font-size: 11px;&quot;&gt;Motor stop signal&lt;/font&gt;" style="edgeLabel;html=1;align=center;verticalAlign=middle;resizable=0;points=[];rotation=-90;" connectable="0" vertex="1" parent="qTblMMeGv0JHgPKJD6Xy-34">
          <mxGeometry x="-0.0665" y="2" relative="1" as="geometry">
            <mxPoint as="offset" />
          </mxGeometry>
        </mxCell>
      </root>
    </mxGraphModel>
  </diagram>
</mxfile>
